<svg xmlns="http://www.w3.org/2000/svg" xmlns:xlink="http://www.w3.org/1999/xlink" width="500" zoomAndPan="magnify" viewBox="0 0 375 374.999991" height="500" preserveAspectRatio="xMidYMid meet" version="1.0"><defs><g/><clipPath id="633b015817"><path d="M 181.796875 99.5 L 339.191406 99.5 L 339.191406 252.957031 L 181.796875 252.957031 Z M 181.796875 99.5 " clip-rule="nonzero"/></clipPath><clipPath id="c20349319b"><path d="M 322.132812 124.304688 L 355.972656 124.304688 L 355.972656 158.144531 L 322.132812 158.144531 Z M 322.132812 124.304688 " clip-rule="nonzero"/></clipPath></defs><g clip-path="url(#633b015817)"><path fill="#e0be5f" d="M 288.964844 137.632812 L 299.421875 109.050781 L 327.972656 137.703125 Z M 286.882812 144.289062 L 329.347656 144.367188 L 267.160156 233.855469 Z M 234.0625 144.199219 L 253.476562 233.863281 L 191.480469 144.121094 Z M 237.191406 133.898438 L 224.375 106.195312 L 254.53125 106.25 Z M 280.664062 141.566406 L 260.3125 233.972656 L 240.289062 141.492188 L 260.535156 109.214844 Z M 283.425781 133.398438 L 266.546875 106.269531 L 293.328125 106.316406 Z M 218.261719 108.84375 L 231.535156 137.53125 L 192.578125 137.464844 Z M 339.160156 141.050781 C 339.160156 141.027344 339.160156 141 339.15625 140.976562 C 339.1875 140.085938 338.855469 139.191406 338.1875 138.519531 L 300.484375 100.683594 C 300.324219 100.515625 300.140625 100.363281 299.941406 100.230469 L 299.9375 100.226562 C 299.894531 100.199219 299.851562 100.171875 299.808594 100.144531 L 299.789062 100.132812 C 299.75 100.109375 299.707031 100.085938 299.667969 100.0625 L 299.632812 100.046875 C 299.597656 100.027344 299.5625 100.011719 299.523438 99.992188 C 299.507812 99.984375 299.484375 99.972656 299.464844 99.964844 C 299.4375 99.953125 299.40625 99.9375 299.378906 99.925781 C 299.347656 99.914062 299.320312 99.902344 299.292969 99.894531 C 299.273438 99.882812 299.253906 99.875 299.230469 99.871094 L 299.222656 99.867188 C 299.195312 99.855469 299.164062 99.84375 299.128906 99.832031 C 299.109375 99.828125 299.085938 99.820312 299.0625 99.8125 C 299.050781 99.808594 299.035156 99.804688 299.019531 99.800781 C 298.699219 99.707031 298.375 99.664062 298.058594 99.667969 L 219.226562 99.527344 C 219.148438 99.523438 219.070312 99.527344 218.992188 99.53125 L 218.988281 99.53125 C 218.933594 99.53125 218.875 99.539062 218.816406 99.542969 L 218.8125 99.546875 C 218.757812 99.550781 218.703125 99.558594 218.648438 99.566406 L 218.636719 99.566406 C 218.582031 99.578125 218.53125 99.585938 218.480469 99.597656 L 218.460938 99.601562 C 218.414062 99.613281 218.367188 99.625 218.320312 99.632812 L 218.285156 99.644531 C 218.246094 99.65625 218.203125 99.667969 218.164062 99.679688 C 218.148438 99.683594 218.132812 99.691406 218.117188 99.695312 C 218.082031 99.707031 218.046875 99.71875 218.011719 99.734375 C 217.988281 99.742188 217.96875 99.75 217.949219 99.757812 C 217.917969 99.769531 217.890625 99.78125 217.859375 99.792969 C 217.835938 99.800781 217.8125 99.8125 217.785156 99.824219 L 217.765625 99.832031 C 217.742188 99.84375 217.722656 99.851562 217.703125 99.863281 C 217.679688 99.875 217.65625 99.886719 217.632812 99.898438 C 217.601562 99.914062 217.570312 99.933594 217.539062 99.949219 C 217.523438 99.960938 217.503906 99.96875 217.484375 99.980469 C 217.449219 100.003906 217.410156 100.023438 217.375 100.046875 L 217.34375 100.066406 C 217.089844 100.230469 216.863281 100.429688 216.667969 100.648438 L 182.648438 138.554688 L 182.636719 138.570312 C 182.578125 138.636719 182.519531 138.707031 182.46875 138.773438 L 182.464844 138.777344 C 182.414062 138.851562 182.363281 138.921875 182.316406 138.996094 L 182.300781 139.019531 C 182.253906 139.09375 182.214844 139.167969 182.171875 139.242188 L 182.160156 139.269531 C 182.121094 139.347656 182.082031 139.425781 182.050781 139.503906 C 181.980469 139.671875 181.925781 139.84375 181.886719 140.019531 L 181.878906 140.039062 C 181.859375 140.121094 181.84375 140.207031 181.832031 140.292969 L 181.832031 140.308594 C 181.820312 140.386719 181.8125 140.46875 181.804688 140.546875 L 181.800781 140.582031 C 181.800781 140.644531 181.796875 140.710938 181.796875 140.773438 C 181.796875 140.792969 181.796875 140.804688 181.796875 140.820312 C 181.796875 140.839844 181.796875 140.855469 181.800781 140.875 C 181.804688 141.042969 181.820312 141.207031 181.847656 141.371094 L 181.855469 141.398438 C 181.871094 141.484375 181.890625 141.566406 181.910156 141.648438 L 181.917969 141.667969 C 181.964844 141.839844 182.027344 142.011719 182.101562 142.171875 L 182.105469 142.183594 C 182.144531 142.265625 182.183594 142.34375 182.230469 142.421875 L 182.242188 142.441406 C 182.285156 142.519531 182.332031 142.59375 182.382812 142.664062 L 182.386719 142.671875 L 257.546875 251.472656 L 257.558594 251.488281 C 257.570312 251.507812 257.585938 251.527344 257.597656 251.546875 C 257.617188 251.570312 257.632812 251.589844 257.648438 251.613281 L 257.667969 251.636719 L 257.671875 251.644531 C 257.707031 251.6875 257.746094 251.734375 257.785156 251.78125 C 257.800781 251.796875 257.8125 251.808594 257.828125 251.824219 C 257.855469 251.859375 257.886719 251.890625 257.917969 251.921875 L 257.949219 251.953125 C 257.964844 251.96875 257.980469 251.984375 257.996094 252 L 258.003906 252.003906 C 258.027344 252.027344 258.050781 252.050781 258.078125 252.070312 L 258.085938 252.078125 C 258.125 252.113281 258.164062 252.148438 258.207031 252.183594 C 258.277344 252.238281 258.351562 252.292969 258.425781 252.34375 L 258.433594 252.347656 C 258.472656 252.375 258.515625 252.402344 258.558594 252.425781 L 258.566406 252.433594 C 258.621094 252.464844 258.679688 252.496094 258.734375 252.527344 L 258.738281 252.527344 C 258.867188 252.597656 259.003906 252.65625 259.144531 252.707031 C 259.160156 252.714844 259.179688 252.722656 259.199219 252.726562 C 259.222656 252.734375 259.246094 252.746094 259.273438 252.753906 C 259.289062 252.757812 259.308594 252.761719 259.324219 252.769531 C 259.355469 252.777344 259.386719 252.789062 259.414062 252.796875 C 259.433594 252.800781 259.449219 252.804688 259.464844 252.808594 C 259.484375 252.8125 259.5 252.816406 259.519531 252.820312 C 259.535156 252.824219 259.550781 252.828125 259.570312 252.832031 C 259.589844 252.835938 259.609375 252.839844 259.628906 252.84375 C 259.648438 252.847656 259.664062 252.851562 259.683594 252.855469 C 259.703125 252.859375 259.722656 252.863281 259.738281 252.863281 C 259.769531 252.871094 259.800781 252.875 259.832031 252.878906 C 259.851562 252.882812 259.871094 252.882812 259.894531 252.886719 C 259.914062 252.890625 259.9375 252.890625 259.957031 252.894531 C 259.984375 252.898438 260.011719 252.898438 260.035156 252.902344 L 260.0625 252.902344 L 260.078125 252.90625 C 260.140625 252.90625 260.203125 252.910156 260.265625 252.910156 L 260.292969 252.910156 C 260.355469 252.910156 260.417969 252.910156 260.480469 252.90625 L 260.503906 252.902344 L 260.523438 252.902344 C 260.550781 252.898438 260.578125 252.898438 260.601562 252.894531 C 260.625 252.894531 260.644531 252.890625 260.667969 252.886719 C 260.6875 252.886719 260.710938 252.882812 260.730469 252.878906 C 260.761719 252.875 260.792969 252.875 260.820312 252.867188 C 260.839844 252.863281 260.859375 252.863281 260.878906 252.855469 C 260.898438 252.855469 260.914062 252.851562 260.933594 252.847656 C 260.953125 252.84375 260.972656 252.839844 260.992188 252.835938 C 261.007812 252.832031 261.027344 252.828125 261.042969 252.824219 C 261.0625 252.820312 261.078125 252.8125 261.097656 252.8125 C 261.113281 252.804688 261.128906 252.800781 261.144531 252.796875 C 261.175781 252.789062 261.207031 252.78125 261.238281 252.773438 C 261.257812 252.765625 261.273438 252.761719 261.289062 252.753906 C 261.316406 252.75 261.339844 252.738281 261.367188 252.730469 C 261.382812 252.726562 261.398438 252.71875 261.417969 252.710938 C 261.558594 252.660156 261.695312 252.601562 261.828125 252.535156 L 261.828125 252.53125 C 261.886719 252.503906 261.941406 252.472656 261.996094 252.4375 L 262.003906 252.433594 C 262.046875 252.410156 262.089844 252.382812 262.132812 252.351562 C 262.257812 252.269531 262.371094 252.179688 262.480469 252.085938 L 262.488281 252.078125 C 262.515625 252.054688 262.539062 252.03125 262.5625 252.011719 L 262.570312 252.003906 C 262.585938 251.992188 262.601562 251.972656 262.617188 251.957031 L 262.644531 251.929688 C 262.675781 251.898438 262.707031 251.867188 262.738281 251.832031 L 262.777344 251.792969 L 262.777344 251.789062 C 262.828125 251.734375 262.871094 251.679688 262.917969 251.621094 C 262.933594 251.597656 262.949219 251.578125 262.964844 251.554688 C 262.980469 251.539062 262.996094 251.515625 263.011719 251.496094 L 263.019531 251.480469 L 338.019531 143.554688 C 338.71875 142.945312 339.15625 142.050781 339.160156 141.050781 " fill-opacity="1" fill-rule="nonzero"/></g><g clip-path="url(#c20349319b)"><path fill="#e0be5f" d="M 356.238281 141.359375 C 343.449219 143.710938 341.539062 145.621094 339.183594 158.410156 C 336.832031 145.621094 334.921875 143.710938 322.132812 141.359375 C 334.921875 139.003906 336.832031 137.09375 339.183594 124.304688 C 341.539062 137.09375 343.449219 139.003906 356.238281 141.359375 Z M 356.238281 141.359375 " fill-opacity="1" fill-rule="nonzero"/></g><g fill="#e0be5f" fill-opacity="1"><g transform="translate(40.052697, 252.373444)"><g><path d="M 88.953125 -153.765625 C 114.878906 -153.765625 135.382812 -146.878906 150.46875 -133.109375 C 165.550781 -119.347656 173.09375 -100.601562 173.09375 -76.875 C 173.09375 -53.15625 165.550781 -34.410156 150.46875 -20.640625 C 135.382812 -6.878906 114.878906 0 88.953125 0 L 9.21875 0 L 9.21875 -2.203125 L 12.078125 -2.203125 C 15.890625 -2.203125 19.148438 -3.554688 21.859375 -6.265625 C 24.566406 -8.972656 25.992188 -12.226562 26.140625 -16.03125 L 26.140625 -139.046875 C 26.140625 -142.554688 24.710938 -145.519531 21.859375 -147.9375 C 19.003906 -150.351562 15.742188 -151.5625 12.078125 -151.5625 L 9.21875 -151.5625 L 9.21875 -153.765625 Z M 86.109375 -9.4375 C 96.648438 -9.4375 105.765625 -12.144531 113.453125 -17.5625 C 121.140625 -22.988281 127.03125 -30.789062 131.125 -40.96875 C 135.226562 -51.144531 137.28125 -62.234375 137.28125 -74.234375 C 137.28125 -86.242188 136.070312 -96.457031 133.65625 -104.875 C 131.238281 -113.300781 127.835938 -120.441406 123.453125 -126.296875 C 114.367188 -138.453125 101.921875 -144.53125 86.109375 -144.53125 L 59.09375 -144.53125 L 59.09375 -9.4375 Z M 86.109375 -9.4375 "/></g></g></g></svg>